<?xml version="1.0" encoding="UTF-8"?>
<!DOCTYPE svg PUBLIC "-//W3C//DTD SVG 1.1//EN" "http://www.w3.org/Graphics/SVG/1.1/DTD/svg11.dtd">
<!-- Creator: CorelDRAW -->
<svg xmlns="http://www.w3.org/2000/svg" xml:space="preserve" width="42.6862mm" height="42.5097mm" version="1.1" style="shape-rendering:geometricPrecision; text-rendering:geometricPrecision; image-rendering:optimizeQuality; fill-rule:evenodd; clip-rule:evenodd"
     viewBox="0 0 5653.43 5630.05"
     xmlns:xlink="http://www.w3.org/1999/xlink"
     xmlns:xodm="http://www.corel.com/coreldraw/odm/2003">
 <defs>
  <style type="text/css">
   <![CDATA[
    .str0 {stroke:#2B2A29;stroke-width:66.22;stroke-miterlimit:22.9256}
    .fil1 {fill:#737373}
    .fil0 {fill:black;fill-rule:nonzero}
   ]]>
  </style>
 </defs>
    <g id="Слой_x0020_1">
  <metadata id="CorelCorpID_0Corel-Layer"/>
        <path class="fil0" d="M2901.48 1710.03c65.41,98.11 93.45,256.98 116.8,626.08l28.04 490.59 4.68 -434.51c9.35,-429.85 -51.4,-705.5 -177.55,-780.27 -32.7,-18.69 -18.69,23.36 28.04,98.11z"/>
        <path class="fil1" d="M560.68 2803.34l1121.32 -1121.34c616.74,-616.74 1130.69,-1121.34 1144.71,-1121.34 14.03,0 527.97,504.6 1144.71,1121.34l1121.34 1121.34 -1135.36 1135.36 -1130.68 1130.68 -1130.68 -1130.68 -1135.36 -1135.36zm840.99 -1401.67l-1401.67 1401.67 1415.69 1415.69 1411.02 1411.02 1411.02 -1411.02 1415.69 -1415.69 -1401.7 -1401.67c-770.92,-770.92 -1411.02,-1401.67 -1425.03,-1401.67 -14.01,0 -654.12,630.75 -1425.03,1401.67z"/>
        <path class="fil1 str0" d="M2438.93 2462.25c46.73,14.03 46.73,42.05 0,112.14 -46.71,74.76 -42.05,98.13 9.35,130.83 42.05,28.04 46.73,51.4 9.35,70.09 -28.04,18.69 -51.4,74.75 -51.4,126.15 0,79.43 37.38,88.78 420.5,88.78l420.5 0 0 -527.97c0,-677.48 -42.05,-812.98 -327.05,-1079.31 -126.15,-116.81 -247.63,-214.93 -266.31,-214.93 -18.69,0 -32.71,121.48 -23.36,266.31 14.01,228.94 -4.68,299.03 -102.79,448.54 -130.83,191.56 -154.19,294.35 -70.09,322.39 37.38,14.01 37.38,51.4 -9.35,126.15 -51.4,84.1 -51.4,116.81 -9.35,130.83zm462.55 -752.22c-46.73,-74.75 -60.74,-116.8 -28.04,-98.11 126.15,74.76 186.9,350.41 177.55,780.27l-4.68 434.51 -28.04 -490.59c-23.35,-369.1 -51.39,-527.97 -116.8,-626.08z"/>
        <path class="fil1 str0" d="M2826.75 3130.4c-612.07,0 -612.07,0 -598.05,102.79 9.34,79.43 51.39,112.13 144.84,121.48l126.15 14.01 0 439.19 0 434.51 163.53 56.06c121.48,42.05 205.58,42.05 327.05,0l163.53 -56.06 0 -434.51 0 -439.19 130.83 -14.01c88.76,-9.34 130.81,-42.05 140.19,-121.48 14.01,-102.79 14.01,-102.79 -598.05,-102.79z"/>
 </g>
</svg>