<?xml version="1.0" encoding="UTF-8" ?>
<!DOCTYPE svg PUBLIC "-//W3C//DTD SVG 1.1//EN" "http://www.w3.org/Graphics/SVG/1.1/DTD/svg11.dtd">
<svg width="184pt" height="184pt" viewBox="0 0 184 184" version="1.1" xmlns="http://www.w3.org/2000/svg">
<g id="#111111ff">
<path fill="#737373" opacity="1.00" d=" M 71.63 35.98 C 78.30 29.07 85.09 22.28 92.00 15.61 C 99.16 22.38 105.90 29.58 113.03 36.38 C 110.78 38.81 108.47 41.17 105.99 43.37 C 101.18 38.95 96.82 34.06 92.00 29.64 C 88.12 33.22 84.48 37.06 80.77 40.81 C 79.94 41.43 79.35 42.62 78.23 42.69 C 75.85 40.64 73.77 38.27 71.63 35.98 Z" />
<path fill="#737373" opacity="1.00" d=" M 55.94 38.33 C 57.53 36.91 59.08 35.44 60.61 33.96 C 66.10 39.56 71.54 45.22 77.23 50.61 C 80.04 49.47 81.78 45.85 84.79 44.51 C 86.80 47.62 85.99 51.39 85.19 54.74 C 87.43 56.97 89.65 59.21 91.99 61.34 C 94.29 59.16 96.74 57.09 98.72 54.58 C 100.03 51.28 96.79 47.62 99.18 44.53 C 102.22 46.27 104.47 49.00 106.99 51.37 C 112.84 45.94 118.20 40.01 124.04 34.58 C 125.51 36.03 126.97 37.49 128.42 38.96 C 123.07 44.72 117.26 50.03 111.87 55.75 C 113.30 57.71 114.79 60.05 113.82 62.56 C 110.65 66.22 106.90 69.34 103.68 72.96 C 104.54 73.99 105.40 75.01 106.26 76.04 C 108.65 73.38 111.77 70.63 115.61 72.25 C 120.79 77.14 125.88 82.18 130.73 87.40 C 131.31 91.47 128.45 96.30 130.77 100.22 C 137.96 107.66 145.49 114.79 152.68 122.23 C 152.66 123.35 151.41 123.94 150.81 124.77 C 147.17 128.30 143.66 131.97 139.94 135.43 C 135.67 129.55 133.04 122.72 129.66 116.34 C 127.34 112.15 126.03 106.74 121.29 104.58 C 119.08 109.43 117.22 114.44 114.86 119.23 C 112.80 117.19 110.30 115.43 108.89 112.86 C 109.07 109.62 111.20 106.95 112.35 104.01 C 106.13 97.43 99.59 91.17 93.24 84.72 C 92.42 83.57 91.43 85.24 90.77 85.70 C 84.60 91.93 78.43 98.16 72.16 104.28 C 73.63 107.15 75.05 110.05 76.37 112.99 C 74.31 115.27 72.16 117.46 69.86 119.49 C 67.10 114.78 65.70 109.42 62.76 104.79 C 57.52 108.68 55.89 115.19 52.48 120.45 C 49.88 125.68 46.93 130.73 44.60 136.10 C 40.04 131.62 35.62 127.01 30.98 122.62 C 38.90 114.28 47.36 106.47 55.22 98.07 C 54.35 94.61 53.34 90.92 54.28 87.37 C 59.17 82.19 64.22 77.11 69.42 72.25 C 72.86 70.62 75.43 73.76 77.49 76.02 C 78.64 74.78 79.82 73.58 81.05 72.41 C 77.75 69.16 74.26 66.09 71.24 62.59 C 70.32 60.02 71.28 57.32 72.68 55.14 C 67.10 49.54 61.38 44.07 55.94 38.33 M 109.94 79.57 C 113.90 83.16 117.39 87.23 121.40 90.76 C 123.00 91.09 124.64 90.98 126.27 91.03 C 125.94 89.71 125.89 88.21 124.76 87.27 C 121.10 83.44 117.17 79.85 113.57 75.94 C 112.40 77.18 111.19 78.40 109.94 79.57 M 60.27 87.26 C 59.09 88.19 59.07 89.73 58.78 91.07 C 60.22 90.83 62.06 91.39 63.20 90.22 C 66.94 86.71 70.48 82.99 74.07 79.32 C 73.03 78.45 71.99 77.57 70.96 76.70 C 67.33 80.15 63.76 83.67 60.27 87.26 M 67.73 99.92 C 68.11 100.48 68.86 101.59 69.24 102.15 C 71.68 99.89 74.03 97.54 76.27 95.08 C 75.89 94.53 75.14 93.41 74.76 92.85 C 72.32 95.11 69.97 97.46 67.73 99.92 M 110.34 92.99 C 109.56 93.78 108.78 94.56 107.99 95.34 C 110.06 97.71 112.31 99.91 114.65 102.00 C 115.43 101.22 116.22 100.44 117.01 99.66 C 114.94 97.30 112.69 95.09 110.34 92.99 Z" />
<path fill="#737373" opacity="1.00" d=" M 14.61 93.00 C 28.95 78.43 43.41 63.97 57.98 49.63 C 60.47 51.80 62.78 54.19 65.01 56.63 C 52.79 68.65 40.64 80.75 28.64 93.00 C 32.10 96.92 36.15 100.29 39.60 104.21 C 38.54 107.08 35.09 109.01 32.97 111.36 C 26.74 105.36 20.61 99.24 14.61 93.00 Z" />
<path fill="#737373" opacity="1.00" d=" M 118.97 56.37 C 121.31 54.11 123.61 51.81 126.00 49.61 C 140.58 63.96 155.05 78.42 169.39 93.00 C 163.39 99.24 157.26 105.37 151.02 111.37 C 148.77 109.04 145.78 107.14 144.27 104.25 C 147.86 100.40 151.84 96.92 155.36 93.00 C 143.39 80.63 130.96 68.71 118.97 56.37 Z" />
<path fill="#737373" opacity="1.00" d=" M 58.20 122.80 C 69.60 133.86 80.58 145.34 92.00 156.37 C 103.42 145.34 114.40 133.86 125.79 122.81 C 127.48 125.79 129.01 128.87 130.38 132.01 C 117.71 144.92 104.90 157.71 92.00 170.39 C 79.10 157.70 66.27 144.93 53.63 131.99 C 54.99 128.85 56.51 125.78 58.20 122.80 Z" />
</g>
</svg>