<?xml version="1.0" encoding="UTF-8" ?>
<!DOCTYPE svg PUBLIC "-//W3C//DTD SVG 1.1//EN" "http://www.w3.org/Graphics/SVG/1.1/DTD/svg11.dtd">
<svg width="184pt" height="184pt" viewBox="0 0 184 184" version="1.1" xmlns="http://www.w3.org/2000/svg">
<g id="#101010ff">
<path fill="#737373" opacity="1.00" d=" M 83.40 20.36 C 102.88 18.13 123.24 24.04 138.23 36.77 C 141.14 39.53 143.95 42.39 146.75 45.25 C 156.13 55.80 161.37 69.36 163.92 83.09 C 164.34 93.11 164.39 103.33 160.90 112.90 C 158.06 122.37 153.41 131.38 146.75 138.74 C 141.46 144.16 136.21 149.82 129.45 153.47 C 108.96 166.36 81.93 167.56 60.31 156.70 C 39.91 146.63 24.48 126.58 21.01 103.97 C 16.78 81.01 24.98 56.03 42.23 40.23 C 53.05 29.03 68.10 22.50 83.40 20.36 M 79.39 32.38 C 68.56 35.02 57.91 39.97 50.24 48.25 C 47.45 51.12 44.35 53.76 42.18 57.17 C 39.67 61.05 36.25 65.03 36.95 69.99 C 36.48 73.10 39.37 74.96 41.40 76.76 C 45.61 77.82 49.74 76.42 53.43 74.45 C 65.40 68.67 78.67 65.33 92.01 65.99 C 107.03 65.20 121.90 69.85 134.98 77.01 C 139.16 79.58 145.30 77.43 146.69 72.65 C 147.41 69.30 147.31 65.57 145.34 62.65 C 138.87 51.49 128.89 42.37 117.31 36.71 C 112.58 35.03 107.85 33.13 102.93 32.10 C 95.10 32.09 87.19 31.61 79.39 32.38 M 87.38 78.36 C 78.35 80.78 75.24 92.58 79.98 100.02 C 83.67 106.27 92.52 107.65 98.73 104.72 C 108.43 100.44 108.74 84.44 99.39 79.62 C 95.82 77.40 91.34 77.69 87.38 78.36 M 39.36 99.30 C 37.28 100.10 35.56 101.61 34.21 103.36 C 33.76 106.82 33.65 110.53 35.23 113.75 C 39.21 124.42 46.81 133.30 55.40 140.59 C 61.78 145.04 68.73 148.74 76.24 150.88 C 80.81 151.97 85.35 147.54 85.07 143.00 C 85.11 136.36 83.27 129.77 80.03 123.99 C 75.12 113.33 65.46 105.29 54.40 101.61 C 49.58 100.10 44.46 98.09 39.36 99.30 M 137.37 99.37 C 129.72 101.14 122.13 103.99 115.96 108.97 C 108.89 114.22 104.40 122.09 101.13 130.11 C 99.72 134.56 98.68 139.25 98.98 143.96 C 99.22 148.46 104.20 152.34 108.59 150.66 C 117.91 147.59 127.06 143.10 133.77 135.77 C 141.21 128.72 147.40 119.95 149.94 109.93 C 149.88 107.17 150.93 103.57 148.28 101.68 C 145.55 98.59 141.11 98.49 137.37 99.37 Z" />
</g>
</svg>
