<?xml version="1.0" encoding="UTF-8" ?>
<!DOCTYPE svg PUBLIC "-//W3C//DTD SVG 1.1//EN" "http://www.w3.org/Graphics/SVG/1.1/DTD/svg11.dtd">
<svg width="184pt" height="184pt" viewBox="0 0 184 184" version="1.1" xmlns="http://www.w3.org/2000/svg">
<g id="#141414ff">
<path fill="#737373" opacity="1.00" d=" M 59.37 31.35 C 66.96 28.51 75.00 27.18 82.99 26.02 C 88.66 25.95 94.34 25.95 100.01 26.02 C 104.45 26.55 108.82 27.53 113.23 28.25 C 112.68 30.59 109.82 30.81 108.18 32.18 C 105.78 33.35 104.31 35.97 101.86 36.91 C 94.61 37.29 87.32 36.72 80.07 37.11 C 66.55 39.33 52.99 43.74 42.06 52.21 C 41.94 70.44 42.03 88.67 42.01 106.91 C 38.28 108.50 34.54 110.08 31.00 112.06 C 31.03 90.11 30.94 68.16 31.04 46.21 C 39.87 40.22 49.02 34.36 59.37 31.35 Z" />
<path fill="#737373" opacity="1.00" d=" M 108.73 40.72 C 114.75 34.55 123.54 31.93 131.99 31.96 C 138.32 32.05 144.64 31.94 150.97 32.02 C 151.37 37.38 150.83 42.69 149.99 47.97 C 150.76 56.84 148.46 66.53 141.77 72.78 C 134.77 79.56 128.10 86.67 121.00 93.34 C 110.08 82.72 99.29 71.93 88.66 61.01 C 95.16 54.06 102.11 47.55 108.73 40.72 Z" />
<path fill="#737373" opacity="1.00" d=" M 98.22 74.29 L 98.78 74.27 C 101.49 76.92 104.25 79.54 106.75 82.39 C 108.01 84.94 104.58 86.54 103.29 88.30 C 101.49 89.74 99.33 93.68 96.80 91.28 C 94.36 88.59 90.99 86.31 89.26 83.22 C 92.22 80.22 95.19 77.22 98.22 74.29 Z" />
<path fill="#737373" opacity="1.00" d=" M 140.22 84.36 C 143.67 80.71 147.20 77.11 150.96 73.77 C 150.97 89.70 151.14 105.65 150.86 121.58 C 132.08 134.82 113.74 148.70 95.01 162.03 C 93.60 162.99 92.30 164.10 91.00 165.20 C 84.20 159.51 76.37 155.05 69.78 149.17 C 71.94 146.40 72.96 142.98 74.35 139.81 C 80.19 143.49 85.55 147.96 91.00 152.21 C 102.34 143.03 114.59 135.04 126.14 126.13 C 130.62 122.56 135.87 119.90 139.79 115.67 C 140.46 105.26 139.52 94.76 140.22 84.36 Z" />
<path fill="#737373" opacity="1.00" d=" M 72.29 102.22 C 77.57 97.13 82.44 91.51 88.08 86.83 C 91.33 87.49 93.06 90.87 95.33 93.01 C 90.03 98.58 84.60 104.04 79.01 109.32 C 76.81 107.00 73.59 105.07 72.29 102.22 Z" />
<path fill="#737373" opacity="1.00" d=" M 65.40 105.37 C 70.19 103.15 73.41 107.76 76.25 110.79 C 77.87 112.24 76.70 114.49 76.17 116.17 C 72.41 125.44 68.71 134.73 65.01 144.03 C 63.70 146.82 61.67 150.63 58.02 150.07 C 55.29 150.38 53.01 148.60 51.23 146.76 C 45.29 140.71 39.22 134.78 33.26 128.74 C 31.32 126.85 30.33 123.99 31.21 121.35 C 32.76 119.54 34.41 117.65 36.65 116.70 C 46.18 112.80 55.93 109.44 65.40 105.37 M 65.42 111.36 C 57.67 114.99 49.20 116.93 41.75 121.23 C 42.38 123.37 44.24 124.74 45.74 126.26 C 50.24 130.56 54.43 135.17 59.02 139.37 C 62.84 136.56 63.75 131.68 65.57 127.58 C 67.24 123.00 69.45 118.61 70.87 113.94 C 70.50 111.76 67.52 110.08 65.42 111.36 Z" />
</g>
</svg>
