<?xml version="1.0" encoding="UTF-8" ?>
<!DOCTYPE svg PUBLIC "-//W3C//DTD SVG 1.1//EN" "http://www.w3.org/Graphics/SVG/1.1/DTD/svg11.dtd">
<svg width="184pt" height="184pt" viewBox="0 0 184 184" version="1.1" xmlns="http://www.w3.org/2000/svg">
<g id="#111111ff">
<path fill="#737373" opacity="1.00" d=" M 90.73 16.69 C 91.40 16.18 92.39 14.52 93.26 15.72 C 119.11 41.75 145.26 67.50 170.99 93.66 C 144.77 119.65 118.65 145.76 92.66 171.98 C 66.81 146.60 41.44 120.73 15.69 95.27 C 15.18 94.59 13.52 93.61 14.72 92.75 C 40.06 67.40 65.46 42.11 90.73 16.69 M 92.35 29.03 C 71.07 50.73 49.27 71.92 28.03 93.65 C 49.40 114.72 70.49 136.07 91.75 157.25 C 92.64 158.45 93.58 156.84 94.26 156.31 C 115.06 135.22 136.26 114.51 156.97 93.35 C 135.27 72.07 114.07 50.28 92.35 29.03 Z" />
<path fill="#737373" opacity="1.00" d=" M 78.30 56.07 C 87.52 55.93 96.75 55.98 105.97 56.02 C 107.93 55.76 109.03 57.57 110.32 58.70 C 117.02 64.95 119.77 74.18 121.04 82.99 C 123.31 94.69 122.00 106.89 117.97 118.05 C 116.61 118.02 115.25 118.00 113.90 117.98 C 113.89 114.18 115.20 110.58 115.89 106.89 C 118.52 92.74 117.10 77.12 109.18 64.81 C 107.38 61.89 104.44 60.29 100.99 60.97 C 101.01 62.21 101.04 63.44 101.07 64.68 C 105.83 67.43 110.34 72.10 110.08 77.97 C 110.71 83.22 108.22 88.94 103.40 91.39 C 99.50 93.78 94.65 93.20 90.33 92.72 C 85.13 90.19 81.14 84.86 80.93 78.97 C 80.41 74.80 83.63 71.62 85.28 68.11 C 82.20 67.99 79.11 67.98 76.03 67.97 C 75.95 64.75 75.94 61.52 76.07 58.30 C 76.82 57.56 77.56 56.82 78.30 56.07 M 91.33 71.22 C 89.37 72.73 87.70 74.75 87.01 77.16 C 86.72 79.41 87.52 81.60 88.34 83.65 C 90.10 86.61 93.82 87.35 97.01 87.05 C 100.10 87.51 101.97 84.66 103.75 82.63 C 104.21 80.25 104.21 77.74 103.75 75.37 C 102.56 73.83 101.17 72.44 99.63 71.26 C 96.90 70.80 94.07 70.84 91.33 71.22 Z" />
<path fill="#737373" opacity="1.00" d=" M 73.21 72.02 C 75.13 72.01 77.05 72.00 78.97 71.98 C 79.46 77.32 77.67 83.31 81.00 88.01 C 83.41 91.62 86.92 94.70 91.16 95.86 C 95.31 96.14 99.75 96.52 103.58 94.59 C 106.34 93.05 108.65 90.87 110.98 88.78 C 112.25 90.97 112.06 93.50 112.04 95.93 C 110.03 95.98 108.01 96.03 105.99 96.09 C 105.99 98.03 106.00 99.97 105.99 101.91 C 108.03 101.97 110.07 102.03 112.11 102.11 C 111.91 105.21 111.65 108.45 110.31 111.27 C 108.64 112.55 106.18 111.82 104.19 112.12 C 102.95 113.98 101.73 115.86 100.65 117.83 C 102.87 117.96 105.10 118.04 107.32 118.17 C 105.70 121.24 103.66 124.07 101.75 126.97 C 92.58 127.04 83.41 127.05 74.24 126.96 C 71.68 124.32 69.63 121.24 67.86 118.02 C 69.99 117.99 72.11 117.97 74.24 117.91 C 73.44 115.96 72.56 114.04 71.73 112.10 C 69.53 112.03 67.34 111.98 65.14 111.92 C 63.96 108.41 63.30 104.75 62.86 101.08 C 64.91 101.01 66.96 100.96 69.00 100.90 C 69.00 99.30 69.00 97.70 69.00 96.10 C 66.95 96.03 64.90 95.98 62.85 95.90 C 63.13 92.53 64.02 89.25 65.18 86.08 C 67.36 86.02 69.54 85.96 71.73 85.89 C 72.56 83.96 73.43 82.04 74.24 80.09 C 72.12 80.03 69.99 80.01 67.87 79.98 C 69.41 77.17 71.18 74.49 73.21 72.02 Z" />
</g>
</svg>
