<?xml version="1.0" encoding="UTF-8" ?>
<!DOCTYPE svg PUBLIC "-//W3C//DTD SVG 1.1//EN" "http://www.w3.org/Graphics/SVG/1.1/DTD/svg11.dtd">
<svg width="184pt" height="184pt" viewBox="0 0 184 184" version="1.1" xmlns="http://www.w3.org/2000/svg">
<g id="#111111ff">
<path fill="#737373" opacity="1.00" d=" M 82.39 20.35 C 102.41 18.06 123.50 23.87 138.75 37.25 C 143.41 41.93 148.46 46.34 151.94 52.03 C 159.98 64.37 164.81 79.18 164.04 93.99 C 164.08 102.80 161.67 111.42 158.59 119.61 C 156.56 124.76 153.37 129.32 150.77 134.18 C 148.20 131.48 144.97 129.25 143.02 126.04 C 146.88 118.08 151.45 110.10 152.21 101.11 C 155.08 86.25 150.63 70.85 142.83 58.18 C 140.30 54.14 136.45 51.21 133.24 47.76 C 125.54 38.97 114.11 34.60 103.01 31.96 C 98.14 30.45 92.99 31.10 87.98 30.98 C 83.58 30.83 79.43 32.57 75.11 33.06 C 71.78 30.84 68.88 27.77 66.65 24.42 C 71.83 22.84 77.04 21.28 82.39 20.35 Z" />
<path fill="#737373" opacity="1.00" d=" M 61.37 30.68 C 63.51 31.77 65.34 33.41 66.75 35.35 C 68.06 43.45 64.66 51.50 66.26 59.63 C 70.75 64.14 75.01 69.10 80.02 73.01 C 85.28 71.95 90.38 69.98 95.69 69.24 C 99.01 72.30 102.10 75.59 105.23 78.85 C 100.91 81.14 96.25 82.68 91.68 84.37 C 92.33 85.69 93.11 86.98 94.33 87.85 C 97.73 88.72 100.79 86.48 104.05 85.97 C 106.29 85.59 107.42 87.99 108.32 89.60 C 105.47 90.80 102.62 91.97 99.77 93.14 C 108.94 102.65 118.46 111.83 127.73 121.24 C 125.60 124.38 122.38 127.61 119.23 129.73 C 109.91 120.50 100.70 111.13 91.36 101.91 C 90.14 104.73 88.77 107.48 87.55 110.30 C 86.14 109.49 84.28 108.65 83.94 106.88 C 83.99 103.27 86.85 100.02 85.83 96.33 C 85.00 95.13 83.70 94.43 82.49 93.69 C 81.11 98.34 78.91 102.69 77.52 107.33 C 73.59 104.73 70.56 101.02 67.26 97.70 C 68.08 92.49 70.48 87.45 71.05 82.12 C 67.28 76.93 61.92 72.96 57.70 68.09 C 49.59 67.72 41.44 68.41 33.35 67.76 C 31.69 66.45 30.30 64.83 28.87 63.28 C 33.04 60.28 38.06 58.21 41.44 54.27 C 39.84 54.10 38.24 53.94 36.63 53.79 C 37.53 51.97 38.91 50.46 40.27 48.98 C 39.28 47.75 37.63 46.83 37.32 45.20 C 39.24 42.95 41.49 41.01 43.63 38.98 C 44.72 40.10 45.82 41.21 46.94 42.30 C 48.37 40.98 49.84 39.69 51.54 38.70 C 52.02 40.25 52.52 41.79 53.08 43.32 C 55.92 39.16 58.75 34.98 61.37 30.68 Z" />
<path fill="#737373" opacity="1.00" d=" M 23.36 68.63 C 27.04 70.85 29.77 74.28 32.76 77.30 C 28.27 94.42 32.45 113.14 42.39 127.61 C 44.89 130.75 48.01 133.32 50.76 136.24 C 59.23 145.89 72.02 150.16 84.21 152.78 C 88.79 153.27 93.42 153.03 98.01 152.98 C 107.05 151.66 115.79 148.60 123.76 144.11 C 126.27 146.80 128.92 149.36 131.43 152.05 C 122.71 158.45 112.12 161.62 101.62 163.64 C 79.56 166.29 55.95 158.76 40.74 142.26 C 24.82 127.10 17.91 103.96 20.35 82.39 C 21.22 77.77 22.53 73.25 23.36 68.63 Z" />
<path fill="#737373" opacity="1.00" d=" M 131.24 125.27 C 133.85 126.51 135.52 129.37 137.75 131.24 C 140.30 134.04 144.39 136.61 144.05 140.88 C 142.65 144.88 138.09 145.88 134.36 144.76 C 130.39 141.24 126.96 137.15 122.94 133.67 C 125.65 130.82 128.35 127.95 131.24 125.27 Z" />
</g>
</svg>
