<?xml version="1.0" encoding="UTF-8" ?>
<!DOCTYPE svg PUBLIC "-//W3C//DTD SVG 1.1//EN" "http://www.w3.org/Graphics/SVG/1.1/DTD/svg11.dtd">
<svg width="184pt" height="184pt" viewBox="0 0 184 184" version="1.1" xmlns="http://www.w3.org/2000/svg">
<g id="#101010ff">
<path fill="#737373" opacity="1.00" d=" M 53.92 31.90 C 67.95 22.94 85.15 19.43 101.61 21.35 C 112.83 23.35 123.81 27.27 133.24 33.75 C 137.89 36.65 141.31 41.03 145.27 44.73 C 151.02 50.00 154.72 57.02 157.99 64.00 C 159.34 67.10 160.81 70.21 161.23 73.61 C 157.89 74.59 154.61 75.81 151.14 76.24 C 147.67 66.47 142.52 57.21 135.28 49.72 C 121.48 36.51 101.59 29.46 82.59 32.58 C 70.49 35.03 58.85 40.31 49.73 48.73 C 46.92 51.41 44.94 54.82 42.07 57.45 C 39.34 54.87 36.33 52.45 34.48 49.11 C 40.60 43.00 46.27 36.18 53.92 31.90 Z" />
<path fill="#737373" opacity="1.00" d=" M 90.36 46.38 C 90.81 44.95 90.94 43.11 92.63 42.58 C 94.25 50.14 95.84 57.72 97.82 65.19 C 99.66 72.50 100.74 79.99 102.97 87.19 C 108.00 83.84 112.08 79.33 117.00 75.82 C 117.01 83.18 117.01 90.53 117.00 97.89 C 132.48 92.47 148.18 87.69 163.60 82.10 C 162.62 83.59 161.54 85.02 160.28 86.28 C 144.07 102.40 127.93 118.60 111.75 134.75 C 108.46 137.98 105.35 141.41 101.78 144.35 C 103.46 135.88 107.55 128.08 109.20 119.60 C 104.94 121.68 101.21 124.61 97.42 127.41 C 95.67 119.76 94.53 111.98 92.63 104.37 C 92.30 104.18 91.64 103.80 91.31 103.61 C 90.30 112.27 88.07 120.70 86.68 129.30 C 82.51 127.48 78.82 124.77 74.70 122.86 C 76.99 130.90 80.71 138.45 83.29 146.37 C 80.73 144.40 78.49 142.07 76.23 139.78 C 64.10 127.47 51.70 115.44 39.69 103.02 C 46.21 102.31 52.57 104.21 59.06 104.04 C 52.51 91.41 44.97 79.31 38.66 66.56 C 42.55 68.34 45.48 71.59 48.87 74.12 C 55.39 78.95 61.63 84.14 67.99 89.17 C 68.67 81.93 66.37 74.89 67.02 67.66 C 71.77 72.01 76.12 76.77 80.80 81.21 C 83.91 69.58 87.31 58.03 90.36 46.38 Z" />
<path fill="#737373" opacity="1.00" d=" M 27.22 61.66 C 29.19 65.47 31.43 69.18 32.92 73.21 C 33.36 77.89 31.00 82.30 31.01 86.97 C 30.96 92.64 30.60 98.39 32.04 103.93 C 35.42 122.91 48.77 139.78 66.33 147.62 C 73.84 150.14 78.38 157.14 83.16 163.00 C 78.68 163.30 74.15 162.80 69.99 161.03 C 53.64 155.70 39.02 144.61 30.27 129.71 C 24.79 121.03 21.69 110.99 20.11 100.90 C 20.00 93.68 19.34 86.30 21.20 79.22 C 22.66 73.21 24.29 67.14 27.22 61.66 Z" />
<path fill="#737373" opacity="1.00" d=" M 152.72 106.74 C 156.44 103.01 160.13 99.25 164.00 95.68 C 164.26 104.23 161.58 112.58 158.48 120.44 C 148.80 144.28 125.30 161.56 99.75 164.14 C 104.06 159.04 108.00 153.45 113.46 149.49 C 129.11 143.57 142.30 131.18 148.55 115.59 C 149.79 112.59 150.26 109.07 152.72 106.74 Z" />
</g>
</svg>
