<?xml version="1.0" encoding="UTF-8" ?>
<!DOCTYPE svg PUBLIC "-//W3C//DTD SVG 1.1//EN" "http://www.w3.org/Graphics/SVG/1.1/DTD/svg11.dtd">
<svg width="184pt" height="184pt" viewBox="0 0 184 184" version="1.1" xmlns="http://www.w3.org/2000/svg">
<g id="#111111ff">
<path fill="#737373" opacity="1.00" d=" M 14.62 92.00 C 40.29 66.08 66.09 40.28 92.00 14.62 C 117.91 40.28 143.71 66.08 169.38 92.00 C 143.71 117.91 117.91 143.71 92.00 169.38 C 66.09 143.71 40.28 117.91 14.62 92.00 M 28.65 92.00 C 49.64 113.24 70.76 134.37 92.00 155.36 C 113.24 134.37 134.36 113.24 155.35 92.00 C 134.36 70.76 113.23 49.65 92.00 28.65 C 70.77 49.65 49.64 70.76 28.65 92.00 Z" />
<path fill="#737373" opacity="1.00" d=" M 51.54 78.13 C 58.96 77.94 66.40 77.88 73.81 78.09 C 77.77 79.34 79.25 85.48 83.97 84.99 C 93.31 85.03 102.64 84.96 111.98 85.00 C 112.04 89.66 112.04 94.32 111.97 98.97 C 102.12 99.25 92.22 98.59 82.40 99.25 C 79.58 101.52 77.41 104.48 74.61 106.78 C 66.95 107.30 59.22 106.97 51.54 106.88 C 53.63 103.27 56.76 100.36 58.69 96.65 C 59.22 93.64 59.29 90.43 58.66 87.44 C 56.17 84.43 53.55 81.50 51.54 78.13 Z" />
<path fill="#737373" opacity="1.00" d=" M 117.02 85.01 C 123.21 85.15 129.44 84.63 135.60 85.23 C 138.12 87.20 140.17 89.67 142.34 91.99 C 140.17 94.30 138.12 96.78 135.60 98.73 C 129.45 99.41 123.22 98.85 117.04 98.98 C 116.96 94.32 116.96 89.66 117.02 85.01 Z" />
</g>
</svg>
