<?xml version="1.0" encoding="UTF-8" ?>
<!DOCTYPE svg PUBLIC "-//W3C//DTD SVG 1.1//EN" "http://www.w3.org/Graphics/SVG/1.1/DTD/svg11.dtd">
<svg width="92pt" height="92pt" viewBox="0 0 92 92" version="1.1" xmlns="http://www.w3.org/2000/svg">
<g id="#181818ff">
<path fill="#737373" opacity="1.00" d=" M 45.12 11.34 C 53.16 15.72 60.00 22.22 67.61 27.38 C 72.88 30.82 77.60 35.04 82.89 38.43 C 83.01 41.32 83.06 44.21 83.00 47.11 C 75.36 42.15 68.40 36.24 60.85 31.16 C 55.85 27.29 50.59 23.75 45.84 19.59 C 32.98 28.43 20.72 38.11 8.00 47.14 C 7.97 44.16 8.00 41.18 8.01 38.20 C 16.23 33.20 23.41 26.72 31.39 21.37 C 36.11 18.23 40.30 14.32 45.12 11.34 Z" />
<path fill="#737373" opacity="1.00" d=" M 45.13 28.34 C 52.55 32.36 58.92 38.28 65.86 43.14 C 71.61 47.06 77.12 51.32 82.68 55.49 C 83.41 58.65 82.90 61.96 82.99 65.18 C 70.85 55.58 58.17 46.68 45.76 37.45 C 43.82 37.84 42.38 39.67 40.72 40.72 C 29.70 48.40 19.27 56.96 8.08 64.36 C 7.94 61.31 7.99 58.25 8.01 55.20 C 16.23 50.21 23.41 43.72 31.39 38.38 C 36.11 35.23 40.30 31.31 45.13 28.34 Z" />
<path fill="#737373" opacity="1.00" d=" M 43.80 46.72 C 44.79 45.77 46.23 45.65 47.20 46.70 C 59.10 55.57 71.16 64.22 82.97 73.21 C 83.00 76.20 83.03 79.19 83.00 82.18 C 71.63 73.05 59.54 64.88 48.01 55.96 C 47.09 55.47 46.34 54.44 45.24 54.42 C 32.69 63.17 20.78 72.86 8.07 81.36 C 7.98 78.65 7.99 75.94 8.02 73.24 C 14.35 67.72 21.47 63.23 28.14 58.15 C 33.24 54.18 38.59 50.55 43.80 46.72 Z" />
</g>
</svg>
