<?xml version="1.0" encoding="UTF-8" ?>
<!DOCTYPE svg PUBLIC "-//W3C//DTD SVG 1.1//EN" "http://www.w3.org/Graphics/SVG/1.1/DTD/svg11.dtd">
<svg width="184pt" height="184pt" viewBox="0 0 184 184" version="1.1" xmlns="http://www.w3.org/2000/svg">
<g id="#111111ff">
<path fill="#737373" opacity="1.00" d=" M 81.56 21.51 C 101.82 18.69 123.28 24.78 138.75 38.25 C 142.66 42.34 147.21 45.93 150.24 50.78 C 152.79 54.71 155.71 58.47 157.30 62.93 C 153.27 63.07 149.24 63.03 145.21 62.98 C 143.21 59.68 141.14 56.36 138.26 53.74 C 133.21 49.11 129.02 43.32 122.67 40.34 C 110.39 33.53 95.85 29.92 81.91 32.88 C 72.78 34.52 64.05 38.18 56.39 43.40 C 51.14 47.83 46.78 53.22 41.62 57.77 C 37.67 58.35 33.65 57.95 29.67 57.92 C 32.30 51.91 36.41 46.64 41.23 42.23 C 51.72 30.85 66.50 24.22 81.56 21.51 Z" />
<path fill="#737373" opacity="1.00" d=" M 86.13 62.72 C 88.16 64.49 89.89 66.54 91.57 68.62 C 98.51 69.68 105.69 68.47 112.70 69.13 C 114.07 69.91 115.24 71.29 116.98 71.01 C 126.28 70.88 135.61 71.24 144.90 70.83 C 150.13 69.65 155.50 69.97 160.82 70.02 C 161.24 72.67 161.82 75.29 162.17 77.95 C 156.40 77.99 150.57 78.44 144.90 77.17 C 136.27 76.75 127.61 77.15 118.97 76.98 C 117.02 77.14 114.22 76.37 113.47 78.85 C 111.91 78.95 110.34 79.03 108.78 79.13 C 117.36 87.95 126.09 96.63 134.89 105.24 C 134.31 106.08 133.73 106.92 133.15 107.76 C 140.26 114.75 147.44 121.69 154.26 128.97 C 147.42 129.03 140.58 129.01 133.74 128.98 C 135.55 126.93 137.48 124.99 139.34 122.98 C 135.93 119.26 132.19 115.85 128.77 112.15 C 127.92 112.72 127.08 113.31 126.24 113.89 C 118.52 105.90 110.55 98.15 102.76 90.24 C 101.40 88.45 98.95 89.20 97.03 88.93 C 97.01 90.57 97.00 92.20 97.00 93.84 C 99.99 93.60 102.77 94.34 104.45 96.98 C 102.55 99.34 100.29 101.55 97.01 101.28 C 97.00 101.91 97.00 103.18 97.00 103.82 C 99.98 103.62 102.77 104.34 104.45 106.98 C 102.54 109.33 100.29 111.56 97.01 111.27 C 97.00 112.50 97.00 113.72 97.00 114.95 C 99.66 114.99 102.33 115.00 105.00 115.01 C 105.02 119.65 105.05 124.30 104.96 128.95 C 97.32 129.05 89.67 129.00 82.03 128.98 C 81.97 124.33 81.98 119.67 82.01 115.02 C 84.34 114.99 86.67 114.98 89.00 114.95 C 89.00 113.65 89.00 112.35 89.00 111.05 C 86.66 111.01 84.33 111.00 81.99 110.98 C 82.00 108.67 82.00 106.35 82.00 104.03 C 84.67 104.01 87.34 103.99 90.00 103.96 C 90.00 103.23 90.01 101.77 90.01 101.04 C 87.33 101.01 84.66 101.00 81.99 100.99 C 82.00 98.67 82.00 96.35 82.00 94.03 C 84.66 94.01 87.33 93.99 90.01 93.96 C 90.00 91.97 90.00 89.98 90.00 87.98 C 87.21 88.21 83.63 87.05 81.71 89.73 C 74.09 97.50 66.29 105.09 58.70 112.89 C 57.56 112.63 56.43 112.36 55.29 112.11 C 51.81 115.80 48.07 119.23 44.65 122.98 C 46.51 124.98 48.44 126.93 50.26 128.98 C 43.75 129.02 37.25 129.03 30.75 128.97 C 37.24 122.01 44.13 115.42 50.89 108.71 C 50.63 107.57 50.35 106.43 50.09 105.30 C 57.20 98.26 64.41 91.31 71.26 84.02 C 68.28 83.97 65.29 83.98 62.31 84.09 C 61.11 85.37 59.90 86.63 58.69 87.91 C 54.19 88.08 49.69 88.02 45.18 87.99 C 45.09 87.24 44.90 85.75 44.81 85.00 C 36.84 84.97 28.88 85.06 20.91 84.97 C 21.09 78.06 22.74 71.06 26.09 64.98 C 35.36 65.05 44.64 64.91 53.90 65.03 C 55.57 64.97 56.44 67.00 58.10 66.96 C 67.36 67.08 76.63 66.96 85.89 66.99 C 85.96 65.57 86.04 64.15 86.13 62.72 Z" />
<path fill="#737373" opacity="1.00" d=" M 153.00 85.02 C 156.67 84.97 160.33 84.97 164.00 85.01 C 163.95 89.67 164.15 94.33 163.95 98.99 C 163.14 107.00 160.99 114.82 157.91 122.24 C 154.89 119.54 152.11 116.59 149.20 113.79 C 152.99 104.71 153.24 94.71 153.00 85.02 Z" />
<path fill="#737373" opacity="1.00" d=" M 20.00 92.00 C 23.66 91.98 27.33 91.98 30.99 92.00 C 30.65 98.23 31.42 104.52 33.66 110.37 C 33.99 111.79 35.00 113.18 34.73 114.67 C 32.34 117.36 29.82 119.98 26.98 122.20 C 26.68 121.98 26.06 121.54 25.75 121.32 C 21.98 112.08 19.49 102.05 20.00 92.00 Z" />
<path fill="#737373" opacity="1.00" d=" M 134.29 136.06 C 139.33 135.96 144.36 135.89 149.40 136.11 C 146.99 140.59 142.57 143.49 139.26 147.26 C 130.49 155.09 119.61 160.66 108.10 163.10 C 84.08 169.21 56.98 161.02 40.23 142.77 C 38.48 141.08 36.64 139.39 35.62 137.13 C 40.64 136.89 45.67 136.97 50.70 137.08 C 59.06 146.90 71.99 151.13 84.21 153.78 C 89.09 154.25 94.03 154.09 98.92 153.90 C 111.95 151.37 125.60 146.65 134.29 136.06 Z" />
</g>
</svg>
