<?xml version="1.0" encoding="UTF-8" ?>
<!DOCTYPE svg PUBLIC "-//W3C//DTD SVG 1.1//EN" "http://www.w3.org/Graphics/SVG/1.1/DTD/svg11.dtd">
<svg width="184pt" height="184pt" viewBox="0 0 184 184" version="1.1" xmlns="http://www.w3.org/2000/svg">
<g id="#111111ff">
<path fill="#737373" opacity="1.00" d=" M 92.22 14.30 L 92.78 14.30 C 118.77 40.24 144.76 66.21 170.68 92.21 L 170.71 92.78 C 144.75 118.76 118.78 144.75 92.78 170.68 L 92.22 170.70 C 66.36 144.92 40.59 119.03 14.71 93.26 C 13.48 92.39 15.18 91.40 15.69 90.73 C 41.28 65.33 66.66 39.73 92.22 14.30 M 92.22 28.31 C 70.91 49.60 49.59 70.88 28.33 92.22 C 28.60 93.94 30.69 94.91 31.74 96.27 C 51.95 116.50 72.30 136.59 92.32 157.00 C 113.82 135.94 134.89 114.42 156.28 93.25 C 157.50 92.39 155.80 91.40 155.30 90.74 C 134.38 70.02 113.67 49.08 92.78 28.34 L 92.22 28.31 Z" />
<path fill="#737373" opacity="1.00" d=" M 73.89 54.00 C 86.28 53.99 98.67 54.00 111.06 54.00 C 107.67 59.27 104.42 64.63 101.03 69.90 C 107.27 72.68 112.37 77.85 115.17 84.07 C 120.41 80.62 125.90 77.56 131.00 73.89 C 131.01 86.28 131.00 98.67 131.00 111.06 C 125.65 107.80 120.49 104.23 115.16 100.93 C 112.35 107.20 107.19 112.36 100.93 115.16 C 104.37 120.41 107.44 125.90 111.10 131.00 C 98.72 130.99 86.33 130.99 73.95 131.00 C 77.20 125.64 80.77 120.49 84.07 115.16 C 77.80 112.35 72.64 107.20 69.84 100.93 C 64.60 104.38 59.10 107.44 54.00 111.11 C 54.00 98.72 53.99 86.33 54.00 73.94 C 59.27 77.33 64.63 80.59 69.90 83.97 C 72.68 77.73 77.84 72.63 84.07 69.84 C 80.63 64.59 77.55 59.10 73.89 54.00 M 88.38 76.38 C 84.90 77.94 80.89 79.41 79.01 82.99 C 77.53 85.80 75.66 88.67 75.91 91.99 C 75.49 100.82 83.18 108.93 91.99 109.09 C 96.36 109.52 100.32 107.14 103.77 104.77 C 107.83 100.52 110.32 94.23 108.63 88.38 C 106.97 84.40 105.00 79.99 100.70 78.29 C 97.06 75.95 92.54 75.24 88.38 76.38 Z" />
<path fill="#737373" opacity="1.00" d=" M 88.31 80.26 C 91.92 79.82 96.24 79.17 99.22 81.78 C 101.50 83.85 104.15 86.01 104.92 89.13 C 105.11 92.51 105.71 96.47 103.22 99.22 C 101.15 101.49 98.99 104.16 95.87 104.91 C 92.48 105.11 88.52 105.72 85.78 103.22 C 83.51 101.15 80.84 98.99 80.09 95.87 C 79.83 92.50 79.18 88.48 81.82 85.83 C 83.89 83.89 85.70 81.50 88.31 80.26 M 89.34 84.30 C 83.41 86.10 82.12 94.61 86.21 98.78 C 88.82 101.38 93.09 101.70 96.39 100.39 C 102.24 98.01 102.77 88.76 97.69 85.32 C 95.27 83.64 92.09 83.62 89.34 84.30 Z" />
</g>
</svg>
