<?xml version="1.0" encoding="UTF-8" ?>
<!DOCTYPE svg PUBLIC "-//W3C//DTD SVG 1.1//EN" "http://www.w3.org/Graphics/SVG/1.1/DTD/svg11.dtd">
<svg width="184pt" height="184pt" viewBox="0 0 184 184" version="1.1" xmlns="http://www.w3.org/2000/svg">
<g id="#121212ff">
<path fill="#737373" opacity="1.00" d=" M 69.18 27.18 C 76.29 25.20 83.65 24.67 91.00 25.00 C 113.42 23.75 135.40 32.76 152.99 46.22 C 153.00 71.72 153.04 97.23 152.96 122.73 C 149.42 126.02 145.40 128.70 141.44 131.44 C 130.32 139.66 119.43 148.17 108.14 156.14 C 102.43 160.14 97.26 164.95 91.15 168.35 C 81.21 160.40 70.83 153.01 60.71 145.28 C 50.63 138.32 41.12 130.57 31.13 123.49 C 30.87 97.76 31.01 72.01 31.05 46.26 C 41.83 36.69 55.39 30.92 69.18 27.18 M 42.05 51.24 C 41.83 62.83 42.32 74.42 41.70 86.00 C 42.30 96.57 41.83 107.17 42.05 117.75 C 58.30 130.37 75.28 142.02 91.41 154.78 C 108.51 142.77 124.87 129.74 141.93 117.69 C 142.04 95.61 142.07 73.52 141.91 51.44 C 131.81 44.72 120.55 39.71 108.61 37.35 C 100.94 35.01 92.84 36.34 84.96 36.00 C 69.59 36.95 54.81 42.79 42.05 51.24 Z" />
<path fill="#737373" opacity="1.00" d=" M 53.08 57.41 C 64.61 50.20 78.39 46.42 92.00 46.98 C 105.71 46.16 119.00 51.10 130.96 57.37 C 131.02 75.49 131.04 93.61 130.95 111.73 C 118.35 122.02 104.66 130.91 92.02 141.16 C 78.84 131.90 66.18 121.93 53.13 112.50 C 52.88 94.14 52.97 75.77 53.08 57.41 M 83.03 60.03 C 82.94 66.68 83.08 73.32 82.97 79.96 C 76.66 80.08 70.35 79.93 64.04 80.03 C 63.99 86.01 63.99 91.99 64.04 97.97 C 70.35 98.08 76.66 97.92 82.98 98.03 C 83.07 104.34 82.94 110.65 83.03 116.96 C 89.01 117.01 94.99 117.01 100.97 116.96 C 101.09 110.65 100.92 104.34 101.03 98.03 C 107.34 97.92 113.66 98.08 119.97 97.97 C 120.04 91.99 120.04 86.01 119.97 80.03 C 113.65 79.92 107.34 80.08 101.03 79.97 C 100.92 73.32 101.08 66.68 100.97 60.03 C 94.99 59.97 89.01 59.97 83.03 60.03 Z" />
</g>
</svg>
