<?xml version="1.0" encoding="UTF-8" ?>
<!DOCTYPE svg PUBLIC "-//W3C//DTD SVG 1.1//EN" "http://www.w3.org/Graphics/SVG/1.1/DTD/svg11.dtd">
<svg width="184pt" height="184pt" viewBox="0 0 184 184" version="1.1" xmlns="http://www.w3.org/2000/svg">
<g id="#0e0e0eff">
<path fill="#737373" opacity="1.00" d=" M 73.24 33.23 C 79.85 26.74 86.22 19.99 93.00 13.66 C 116.95 37.15 140.45 61.10 164.28 84.72 C 167.02 87.42 169.71 90.18 172.34 93.00 C 148.85 116.95 124.89 140.45 101.28 164.28 C 98.58 167.02 95.81 169.71 93.00 172.34 C 71.89 151.67 51.19 130.59 30.24 109.76 C 24.72 104.17 19.00 98.76 13.66 93.00 C 33.33 72.89 53.42 53.19 73.24 33.23 M 70.75 49.75 C 60.12 60.52 49.22 71.01 38.75 81.94 C 46.21 82.32 53.66 81.75 61.11 81.89 C 65.96 81.69 69.23 85.70 72.89 88.21 C 76.38 83.37 80.31 78.03 86.39 76.45 C 92.48 75.08 99.57 75.32 104.63 79.40 C 107.88 82.25 110.19 85.96 112.88 89.32 C 115.36 87.07 117.22 83.19 121.00 83.19 C 130.07 82.71 139.16 83.96 148.22 82.97 C 133.02 67.12 117.13 51.93 101.79 36.21 C 98.97 33.20 95.68 30.68 92.18 28.51 C 84.84 35.39 77.93 42.71 70.75 49.75 M 148.46 86.42 C 136.60 89.18 124.40 89.90 112.49 92.44 C 113.21 94.16 113.28 97.56 116.00 96.84 C 125.92 95.71 135.45 91.81 145.56 92.15 C 144.28 93.97 143.28 96.45 140.83 96.89 C 132.96 98.86 124.92 100.11 117.08 102.15 C 114.95 102.55 113.61 104.35 112.21 105.81 C 122.12 106.62 131.03 101.10 140.84 100.87 C 139.80 102.71 138.89 104.99 136.61 105.55 C 126.59 109.06 115.76 110.55 106.58 116.20 C 106.63 114.56 106.70 112.92 106.76 111.29 C 100.69 112.00 94.61 110.96 88.55 111.53 C 85.20 111.80 81.84 111.82 78.49 111.85 C 80.98 113.94 83.37 116.33 86.41 117.62 C 89.95 118.22 93.56 117.41 97.13 117.49 C 96.23 119.17 95.43 120.92 94.27 122.44 C 90.09 124.14 85.25 123.49 81.05 122.16 C 75.85 120.50 75.36 113.53 70.28 111.79 C 63.26 108.92 55.68 107.85 48.56 105.31 C 46.04 104.57 44.77 102.17 43.43 100.14 C 53.42 100.78 62.65 105.42 72.65 105.92 C 71.13 103.93 69.58 101.53 66.87 101.17 C 58.76 99.35 50.54 97.87 42.62 95.34 C 40.08 94.64 38.92 92.14 37.62 90.11 C 49.23 91.17 60.27 95.62 71.95 96.20 C 72.00 94.38 72.05 92.56 72.10 90.74 C 64.45 89.66 56.67 89.53 49.08 87.94 C 44.52 87.21 39.94 85.87 35.28 86.20 C 32.05 87.43 30.04 90.61 27.65 92.97 C 34.15 99.92 41.08 106.46 47.75 113.25 C 62.87 128.23 77.72 143.50 93.00 158.32 C 98.77 152.98 104.16 147.27 109.75 141.75 C 125.91 125.46 142.33 109.43 158.33 92.99 C 155.43 90.49 153.05 84.98 148.46 86.42 M 80.98 96.51 C 80.67 99.76 80.61 103.04 80.80 106.31 C 84.88 105.18 88.68 102.90 92.97 102.65 C 96.36 103.01 99.24 105.14 102.57 105.73 C 105.63 103.80 104.50 99.64 104.89 96.60 C 96.96 95.33 88.91 95.02 80.98 96.51 Z" />
</g>
</svg>
