<?xml version="1.0" encoding="UTF-8" ?>
<!DOCTYPE svg PUBLIC "-//W3C//DTD SVG 1.1//EN" "http://www.w3.org/Graphics/SVG/1.1/DTD/svg11.dtd">
<svg width="184pt" height="184pt" viewBox="0 0 184 184" version="1.1" xmlns="http://www.w3.org/2000/svg">
<g id="#101010ff">
<path fill="#737373" opacity="1.00" d=" M 19.21 87.28 C 43.70 62.83 68.11 38.30 92.64 13.90 C 93.05 14.37 93.87 15.30 94.28 15.77 C 119.12 40.60 143.95 65.44 168.78 90.27 C 169.39 91.12 170.79 91.63 170.93 92.70 C 145.57 117.75 120.51 143.11 95.23 168.24 C 94.31 169.12 93.46 170.09 92.68 171.10 C 66.34 144.95 40.15 118.62 13.88 92.38 C 15.80 90.83 17.47 89.01 19.21 87.28 M 27.91 92.39 C 48.86 113.35 69.82 134.32 90.79 155.27 C 91.17 155.73 91.94 156.64 92.32 157.10 C 114.02 135.73 135.26 113.86 157.09 92.63 C 136.17 71.65 115.20 50.72 94.25 29.77 C 93.85 29.31 93.05 28.37 92.65 27.91 C 70.99 49.33 49.70 71.13 27.91 92.39 Z" />
</g>
</svg>
