<?xml version="1.0" encoding="UTF-8" ?>
<!DOCTYPE svg PUBLIC "-//W3C//DTD SVG 1.1//EN" "http://www.w3.org/Graphics/SVG/1.1/DTD/svg11.dtd">
<svg width="184pt" height="184pt" viewBox="0 0 184 184" version="1.1" xmlns="http://www.w3.org/2000/svg">
<g id="#101010ff">
<path fill="#737373" opacity="1.00" d=" M 87.71 19.72 C 89.09 18.32 90.54 16.98 92.00 15.66 C 102.26 25.60 112.38 35.72 122.32 45.98 C 120.01 48.16 118.10 51.49 115.21 52.66 C 107.35 45.13 99.95 37.12 92.00 29.69 C 75.58 45.70 59.54 62.10 43.26 78.25 C 38.76 82.87 34.02 87.23 29.69 92.00 C 36.60 99.27 43.77 106.31 50.97 113.29 C 48.94 115.92 46.46 118.13 43.99 120.32 C 34.39 111.05 24.94 101.59 15.66 92.00 C 39.48 67.71 63.77 43.89 87.71 19.72 Z" />
<path fill="#737373" opacity="1.00" d=" M 133.31 44.03 C 135.08 45.36 136.65 46.93 137.98 48.69 C 132.30 54.07 126.90 59.73 121.27 65.16 C 123.23 67.73 124.23 72.08 121.28 74.30 C 116.64 78.68 112.40 83.48 107.63 87.71 C 105.32 88.07 102.91 87.99 100.75 89.04 C 105.71 94.59 111.38 99.44 116.33 104.99 C 113.58 107.98 110.79 110.95 107.77 113.68 C 103.53 111.16 100.64 106.32 96.59 103.24 C 91.56 101.42 88.78 107.19 85.70 110.05 C 86.96 113.00 88.40 115.87 89.85 118.73 C 87.66 120.94 85.48 123.16 83.12 125.20 C 80.94 120.13 79.12 114.90 76.64 109.96 C 73.82 112.69 70.92 115.37 68.29 118.29 C 62.84 126.24 59.45 135.40 54.02 143.37 C 49.76 139.39 45.62 135.28 41.67 131.00 C 50.12 121.98 59.23 113.58 67.73 104.62 C 68.86 100.87 67.20 97.00 67.28 93.35 C 72.16 88.18 77.23 83.14 82.38 78.24 C 86.07 76.77 89.29 79.03 91.36 81.95 C 97.02 76.76 102.25 71.11 107.76 65.76 C 111.58 62.97 105.02 56.67 110.02 54.89 C 112.55 56.54 114.31 59.12 116.69 60.97 C 122.10 55.19 127.89 49.79 133.31 44.03 M 84.24 82.34 C 81.96 84.31 80.10 86.78 77.39 88.22 C 74.67 90.42 71.29 93.08 71.90 97.02 C 73.46 96.94 75.08 97.20 76.61 96.75 C 80.66 93.34 84.05 89.21 87.98 85.66 C 86.79 84.59 85.93 82.43 84.24 82.34 M 80.89 105.82 C 81.43 106.17 82.51 106.88 83.05 107.23 C 85.30 105.37 87.36 103.30 89.23 101.05 C 88.87 100.51 88.16 99.43 87.80 98.89 C 85.32 101.02 83.01 103.34 80.89 105.82 Z" />
<path fill="#737373" opacity="1.00" d=" M 128.68 66.01 C 130.61 63.68 132.77 61.55 135.08 59.60 C 137.44 60.49 139.05 62.49 140.78 64.22 C 149.89 73.55 159.36 82.54 168.34 92.00 C 147.67 113.11 126.59 133.81 105.76 154.76 C 101.14 159.25 96.78 164.01 92.00 168.34 C 82.20 159.02 72.90 149.19 63.18 139.79 C 65.07 136.93 66.52 133.83 68.20 130.85 C 76.33 138.47 83.85 146.72 92.00 154.32 C 108.09 138.65 123.80 122.57 139.75 106.74 C 144.57 101.79 149.65 97.10 154.31 92.00 C 146.00 83.12 136.99 74.89 128.68 66.01 Z" />
</g>
</svg>
