<?xml version="1.0" encoding="UTF-8" ?>
<!DOCTYPE svg PUBLIC "-//W3C//DTD SVG 1.1//EN" "http://www.w3.org/Graphics/SVG/1.1/DTD/svg11.dtd">
<svg width="184pt" height="184pt" viewBox="0 0 184 184" version="1.1" xmlns="http://www.w3.org/2000/svg">
<g id="#101010ff">
<path fill="#737373" opacity="1.00" d=" M 89.43 16.36 C 90.25 15.87 91.30 14.83 92.24 15.76 C 100.65 21.23 108.24 27.85 116.57 33.43 C 127.63 41.79 139.00 49.73 149.95 58.24 C 150.07 78.16 149.99 98.08 149.98 118.00 C 148.41 128.92 144.28 139.64 137.25 148.23 C 131.99 153.35 127.28 159.40 120.34 162.35 C 113.44 166.25 105.88 169.00 98.00 169.98 C 91.46 169.89 84.73 170.75 78.39 168.66 C 72.03 167.46 66.37 164.25 60.68 161.32 C 54.89 157.97 50.40 152.93 45.75 148.23 C 38.72 139.64 34.59 128.91 33.02 118.00 C 33.02 98.09 32.92 78.18 33.06 58.27 C 37.41 54.09 42.69 51.11 47.43 47.42 C 61.29 36.88 75.59 26.93 89.43 16.36 M 84.29 33.29 C 77.65 38.35 70.72 43.00 64.15 48.16 C 57.51 53.26 50.34 57.68 44.08 63.27 C 43.91 81.52 44.05 99.78 44.00 118.04 C 44.41 125.88 48.03 133.21 52.40 139.60 C 55.43 143.21 58.92 146.43 62.30 149.71 C 68.04 154.31 75.09 157.14 82.20 158.81 C 88.38 159.14 94.62 159.14 100.80 158.81 C 107.91 157.14 114.96 154.31 120.70 149.71 C 124.08 146.43 127.57 143.21 130.60 139.60 C 135.53 132.41 139.50 123.93 139.01 115.01 C 138.93 97.76 139.10 80.52 138.93 63.27 C 136.84 61.23 134.46 59.56 132.01 57.98 C 126.40 53.96 121.02 49.62 115.39 45.63 C 107.30 40.14 99.92 33.67 91.67 28.43 C 88.79 29.08 86.75 31.73 84.29 33.29 Z" />
<path fill="#737373" opacity="1.00" d=" M 89.43 42.36 C 90.24 41.91 91.31 40.83 92.23 41.74 C 100.43 47.09 107.86 53.54 115.99 59.01 C 120.32 62.10 124.43 65.49 128.84 68.46 C 129.06 71.33 129.10 74.21 128.99 77.09 C 116.12 68.33 103.95 58.54 91.17 49.68 C 78.91 58.99 66.46 68.06 54.01 77.12 C 53.92 74.16 53.97 71.20 54.06 68.24 C 62.19 63.12 69.44 56.77 77.38 51.38 C 81.50 48.52 85.40 45.34 89.43 42.36 Z" />
<path fill="#737373" opacity="1.00" d=" M 64.85 77.85 C 73.74 71.73 82.10 64.85 91.12 58.94 C 92.89 58.94 94.15 60.56 95.61 61.40 C 106.60 69.84 118.02 77.70 128.94 86.24 C 129.03 89.21 129.08 92.18 128.99 95.15 C 116.66 85.54 103.98 76.38 91.32 67.22 C 83.10 73.39 74.72 79.33 66.57 85.57 C 62.21 88.22 58.58 91.91 54.08 94.31 C 53.92 91.63 53.96 88.95 54.06 86.27 C 57.39 83.13 61.24 80.63 64.85 77.85 Z" />
<path fill="#737373" opacity="1.00" d=" M 90.61 76.62 C 91.61 75.74 92.71 76.89 93.58 77.37 C 105.19 86.26 117.08 94.78 128.84 103.47 C 129.07 108.23 129.23 113.03 128.82 117.79 C 126.63 128.34 120.55 138.65 110.80 143.78 C 105.87 146.29 100.70 148.98 95.03 149.03 C 90.14 149.06 85.08 149.43 80.43 147.57 C 76.17 145.73 71.57 144.19 68.26 140.78 C 64.47 136.87 60.06 133.33 57.70 128.30 C 56.12 124.65 54.58 120.90 54.07 116.93 C 53.83 112.38 53.98 107.83 54.08 103.28 C 66.43 94.64 78.34 85.36 90.61 76.62 M 90.49 85.31 C 80.87 92.87 70.69 99.68 61.07 107.24 C 60.23 114.51 61.72 122.05 65.81 128.17 C 70.22 132.79 74.59 138.04 80.84 140.18 C 88.78 143.35 98.12 142.70 105.62 138.62 C 110.13 135.95 113.63 131.94 117.20 128.17 C 121.28 122.05 122.76 114.52 121.93 107.25 C 112.59 100.18 102.94 93.50 93.74 86.23 C 92.84 85.63 91.58 84.17 90.49 85.31 Z" />
</g>
</svg>
