<?xml version="1.0" encoding="UTF-8" ?>
<!DOCTYPE svg PUBLIC "-//W3C//DTD SVG 1.1//EN" "http://www.w3.org/Graphics/SVG/1.1/DTD/svg11.dtd">
<svg width="184pt" height="184pt" viewBox="0 0 184 184" version="1.1" xmlns="http://www.w3.org/2000/svg">
<g id="#0f0f0eff">
<path fill="#737373" opacity="1.00" d=" M 84.41 20.39 C 100.78 18.40 117.57 22.74 131.42 31.58 C 143.61 40.10 153.85 51.83 159.14 65.86 C 160.97 70.93 162.42 76.13 163.64 81.38 C 165.99 101.22 160.71 122.28 147.70 137.69 C 141.38 144.44 134.76 151.23 126.35 155.37 C 119.66 159.01 112.35 161.36 104.93 162.98 C 98.12 164.66 91.03 163.95 84.10 163.90 C 70.22 161.71 56.44 156.62 45.79 147.23 C 40.51 142.15 35.12 137.06 31.18 130.82 C 22.05 116.10 17.95 98.09 20.86 80.94 C 20.92 75.91 23.14 71.32 24.60 66.60 C 29.95 51.80 40.83 39.47 53.79 30.78 C 63.15 25.35 73.54 21.18 84.41 20.39 M 54.85 43.84 C 47.89 50.01 41.48 56.98 37.34 65.39 C 36.70 67.71 36.86 70.23 37.23 72.60 C 38.43 74.15 39.84 75.56 41.39 76.76 C 45.37 77.70 49.40 76.73 52.87 74.70 C 52.95 72.87 53.01 71.04 53.08 69.20 C 65.05 60.49 76.93 51.66 88.75 42.74 C 90.04 42.01 91.34 40.91 92.90 40.94 C 95.76 41.85 97.63 44.31 99.89 46.12 C 108.04 51.93 116.02 57.98 124.08 63.89 C 126.57 65.35 129.09 66.95 130.73 69.40 C 131.10 71.19 131.03 73.03 131.11 74.85 C 134.52 77.17 139.07 79.53 143.05 77.06 C 147.26 74.92 147.67 69.46 146.66 65.39 C 140.51 53.49 130.64 43.38 118.59 37.43 C 113.46 35.41 108.33 33.20 102.93 32.09 C 95.65 31.94 88.35 31.93 81.07 32.10 C 71.58 33.98 62.62 38.09 54.85 43.84 M 71.29 64.29 C 67.58 67.30 63.26 69.64 60.22 73.39 C 59.66 84.24 60.20 95.16 59.96 106.04 C 59.61 110.26 61.63 114.08 63.11 117.89 C 65.23 123.31 69.60 127.38 73.84 131.18 C 85.75 139.44 102.94 138.45 113.77 128.79 C 121.87 121.74 125.37 110.51 125.05 100.00 C 125.00 91.09 125.05 82.18 124.95 73.27 C 119.62 68.40 113.31 64.81 107.71 60.29 C 102.35 56.64 97.25 52.62 91.99 48.84 C 85.36 54.36 78.15 59.09 71.29 64.29 M 34.21 103.36 C 33.83 106.57 33.59 110.03 34.96 113.05 C 37.39 119.71 41.22 125.81 45.77 131.21 C 50.11 135.57 54.13 140.44 59.67 143.34 C 64.77 146.68 70.41 149.11 76.23 150.89 C 80.84 151.97 84.97 147.67 85.21 143.25 C 77.78 141.58 70.42 138.54 65.20 132.80 C 56.72 124.75 52.36 112.88 52.93 101.26 C 48.73 100.33 44.57 98.48 40.19 99.04 C 37.73 99.66 35.73 101.40 34.21 103.36 M 131.01 101.16 C 130.96 104.75 131.12 108.35 130.94 111.94 C 127.99 127.67 114.60 140.69 98.79 143.19 C 98.87 148.62 105.08 153.15 110.02 150.04 C 128.55 144.35 143.72 129.12 149.82 110.79 C 150.00 107.53 151.04 103.27 147.76 101.20 C 143.06 96.85 136.35 99.91 131.01 101.16 Z" />
<path fill="#737373" opacity="1.00" d=" M 90.19 59.13 C 91.14 58.58 92.44 57.20 93.53 58.31 C 99.67 62.90 105.63 67.74 112.02 71.99 C 113.81 73.21 115.47 74.67 116.80 76.39 C 117.07 77.97 117.01 79.58 117.05 81.18 C 108.60 75.99 101.13 69.38 92.87 63.93 C 89.85 64.24 87.93 66.95 85.53 68.52 C 79.18 72.50 73.70 77.82 67.04 81.33 C 67.00 79.63 67.00 77.94 67.00 76.24 C 74.62 70.40 82.40 64.75 90.19 59.13 Z" />
<path fill="#737373" opacity="1.00" d=" M 84.70 74.69 C 87.26 72.88 89.71 70.54 92.87 69.89 C 101.06 75.43 108.90 81.50 116.99 87.21 C 116.99 89.17 117.00 91.13 117.02 93.10 C 108.35 87.44 100.38 80.81 91.96 74.81 C 86.65 79.64 80.73 83.74 74.86 87.86 C 72.29 89.74 69.91 91.92 67.04 93.34 C 67.00 91.65 67.00 89.96 67.01 88.28 C 72.54 83.28 78.79 79.21 84.70 74.69 Z" />
<path fill="#737373" opacity="1.00" d=" M 67.05 99.27 C 75.50 93.34 83.89 87.30 91.95 80.84 C 100.43 86.76 108.68 93.01 116.94 99.23 C 116.96 103.09 117.29 106.96 116.84 110.80 C 114.74 118.31 109.38 125.12 102.02 128.02 C 94.80 131.05 86.36 130.33 79.64 126.37 C 73.39 122.43 68.82 116.02 67.14 108.83 C 66.74 105.66 67.01 102.45 67.05 99.27 M 72.04 102.28 C 71.70 106.71 72.01 111.51 74.80 115.17 C 78.90 119.65 83.33 125.04 90.00 125.02 C 102.30 126.86 114.67 114.70 112.84 102.37 C 110.53 99.52 107.12 97.95 104.27 95.73 C 100.18 92.77 96.34 89.45 92.03 86.80 C 85.57 92.22 78.29 96.58 72.04 102.28 Z" />
</g>
</svg>
