<?xml version="1.0" encoding="UTF-8" ?>
<!DOCTYPE svg PUBLIC "-//W3C//DTD SVG 1.1//EN" "http://www.w3.org/Graphics/SVG/1.1/DTD/svg11.dtd">
<svg width="184pt" height="184pt" viewBox="0 0 184 184" version="1.1" xmlns="http://www.w3.org/2000/svg">
<g id="#0f0f0fff">
<path fill="#737373" opacity="1.00" d=" M 91.22 15.08 C 99.97 20.78 107.97 27.52 116.55 33.45 C 124.94 39.75 133.50 45.81 141.89 52.10 C 144.52 54.13 147.50 55.84 149.59 58.48 C 150.13 60.59 150.05 62.80 150.09 64.96 C 149.86 82.31 150.18 99.67 149.95 117.02 C 148.60 130.65 142.51 144.01 132.32 153.31 C 125.99 160.27 117.30 164.45 108.60 167.60 C 88.62 174.15 65.45 168.16 50.70 153.31 C 38.56 142.19 32.04 125.37 32.96 109.00 C 33.05 93.64 33.00 78.28 32.93 62.92 C 33.12 61.02 32.74 58.72 34.29 57.29 C 37.84 53.73 42.31 51.31 46.27 48.28 C 61.13 37.04 76.35 26.30 91.22 15.08 M 91.22 28.11 C 77.04 38.66 62.83 49.16 48.51 59.51 C 46.75 61.04 44.18 62.46 44.13 65.08 C 43.71 71.39 44.11 77.74 44.07 84.07 C 49.41 84.12 54.75 83.63 60.08 83.96 C 64.55 84.09 67.47 87.94 70.89 90.28 C 74.32 85.37 78.29 80.04 84.39 78.45 C 90.06 77.18 96.45 77.32 101.49 80.53 C 105.35 83.11 107.40 87.46 110.48 90.81 C 113.76 89.56 115.15 85.09 119.00 85.19 C 125.64 84.90 132.29 85.33 138.94 85.30 C 138.87 78.56 139.28 71.80 138.88 65.07 C 138.85 62.43 136.24 61.03 134.43 59.57 C 119.86 49.32 105.89 38.22 91.22 28.11 M 43.87 89.34 C 43.96 90.82 44.05 92.31 44.14 93.80 C 52.77 95.37 61.29 97.75 70.08 98.21 C 69.96 96.25 69.83 94.29 69.71 92.33 C 61.03 92.01 52.37 91.12 43.87 89.34 M 110.91 94.26 C 111.09 95.83 111.27 97.41 111.46 98.99 C 120.65 98.43 129.55 95.89 138.64 94.54 C 138.78 93.06 138.92 91.58 139.06 90.09 C 129.63 91.13 120.27 92.69 110.91 94.26 M 78.90 98.49 C 78.72 101.78 78.70 105.09 78.79 108.39 C 82.55 107.21 86.09 105.27 90.03 104.67 C 93.82 104.27 96.86 107.43 100.52 107.58 C 103.74 106.02 102.41 101.49 102.94 98.57 C 94.96 97.37 86.87 97.05 78.90 98.49 M 43.96 98.11 C 44.09 99.59 44.22 101.07 44.35 102.55 C 53.13 104.36 61.67 107.55 70.67 108.05 C 69.04 105.80 67.36 103.14 64.37 102.67 C 57.58 101.10 50.75 99.71 43.96 98.11 M 115.74 103.73 C 113.35 104.19 111.73 106.08 110.19 107.79 C 120.01 108.91 129.13 104.38 138.73 103.38 C 136.79 105.32 134.60 107.09 131.94 107.90 C 122.67 111.08 112.88 113.07 104.44 118.28 C 104.59 116.60 104.75 114.92 104.91 113.24 C 98.80 114.07 92.66 112.95 86.55 113.53 C 83.20 113.81 79.84 113.83 76.48 113.85 C 79.19 116.08 81.75 118.78 85.16 119.92 C 88.40 120.05 91.65 119.03 94.88 119.72 C 93.93 121.68 93.38 124.68 90.80 125.01 C 86.64 125.81 82.20 125.44 78.27 123.84 C 73.88 121.94 73.28 116.13 69.09 114.02 C 61.20 110.18 52.69 107.89 44.17 105.94 C 44.07 108.63 43.97 111.32 43.96 114.02 C 43.44 125.85 49.19 137.33 57.69 145.32 C 66.33 154.71 79.24 160.04 92.01 159.09 C 102.09 159.75 112.13 156.17 120.12 150.12 C 126.84 144.39 133.20 137.74 136.25 129.26 C 140.43 119.64 138.74 108.98 138.84 98.82 C 131.10 100.24 123.36 101.76 115.74 103.73 Z" />
<path fill="#737373" opacity="1.00" d=" M 91.21 41.08 C 101.11 47.63 110.25 55.23 120.02 61.97 C 122.88 64.12 125.99 66.03 128.43 68.68 C 129.32 71.40 129.00 74.33 129.14 77.15 C 121.25 72.04 114.00 66.04 106.28 60.71 C 101.37 57.31 96.96 53.17 91.82 50.11 C 88.67 51.24 86.13 53.53 83.42 55.43 C 73.71 62.85 63.79 70.00 53.90 77.18 C 53.97 74.27 53.75 71.31 54.40 68.46 C 57.48 64.06 62.73 62.00 66.96 58.93 C 75.10 53.06 83.20 47.13 91.21 41.08 Z" />
</g>
</svg>
