<?xml version="1.0" encoding="UTF-8" ?>
<!DOCTYPE svg PUBLIC "-//W3C//DTD SVG 1.1//EN" "http://www.w3.org/Graphics/SVG/1.1/DTD/svg11.dtd">
<svg width="184pt" height="184pt" viewBox="0 0 184 184" version="1.1" xmlns="http://www.w3.org/2000/svg">
<g id="#111111ff">
<path fill="#737373" opacity="1.00" d=" M 15.61 93.00 C 41.29 67.09 67.09 41.29 93.00 15.60 C 118.91 41.29 144.71 67.09 170.39 93.00 C 144.71 118.90 118.91 144.71 93.00 170.39 C 67.09 144.71 41.29 118.91 15.61 93.00 M 29.64 93.00 C 50.65 114.23 71.77 135.37 93.00 156.37 C 114.23 135.36 135.36 114.23 156.36 93.00 C 135.36 71.77 114.23 50.65 93.00 29.64 C 71.77 50.65 50.64 71.77 29.64 93.00 Z" />
<path fill="#737373" opacity="1.00" d=" M 75.27 62.14 C 79.50 61.73 83.76 62.08 88.01 62.00 C 87.97 66.00 88.03 69.99 88.01 73.98 C 91.34 73.99 94.67 73.99 97.99 73.98 C 97.97 69.99 98.03 66.00 97.99 62.00 C 102.23 62.08 106.49 61.73 110.72 62.14 C 112.75 63.40 111.69 66.06 112.05 68.02 C 111.78 70.76 114.27 72.64 114.78 75.20 C 116.70 85.70 120.52 95.97 120.03 106.79 C 120.77 106.89 122.26 107.10 123.00 107.20 C 123.01 110.80 123.03 114.40 123.00 118.00 C 115.01 118.00 107.02 118.02 99.03 117.99 C 99.09 114.77 98.62 111.49 99.26 108.32 C 100.86 105.77 101.72 102.87 102.20 99.92 C 99.83 99.83 97.49 100.17 95.48 101.51 C 91.40 103.67 88.01 98.89 83.80 99.91 C 84.28 102.87 85.14 105.77 86.74 108.32 C 87.38 111.49 86.91 114.77 86.97 117.99 C 78.98 118.02 70.99 118.00 63.00 118.00 C 62.97 114.40 62.99 110.80 63.00 107.20 C 63.74 107.10 65.22 106.90 65.96 106.79 C 65.48 95.97 69.29 85.70 71.22 75.20 C 71.73 72.64 74.22 70.77 73.95 68.02 C 74.31 66.06 73.24 63.40 75.27 62.14 M 85.86 83.00 C 87.80 86.47 90.00 89.84 93.02 92.47 C 95.80 89.64 98.12 86.39 100.17 83.01 C 95.40 83.00 90.63 83.01 85.86 83.00 Z" />
</g>
</svg>
